<mxfile host="app.diagrams.net" modified="2022-05-23T09:48:19.509Z" agent="5.0 (Windows NT 10.0; Win64; x64) AppleWebKit/537.36 (KHTML, like Gecko) Chrome/101.0.4951.67 Safari/537.36" etag="lLwSpyv_GTVOeYqQfYsp" version="17.4.6" type="github">
  <diagram id="Kkqfwm4JsriWpX6cNgJ2" name="Page-1">
    <mxGraphModel dx="1085" dy="544" grid="1" gridSize="10" guides="1" tooltips="1" connect="1" arrows="1" fold="1" page="1" pageScale="1" pageWidth="850" pageHeight="1100" math="0" shadow="0">
      <root>
        <mxCell id="0" />
        <mxCell id="1" parent="0" />
        <mxCell id="2nqrqoSfyTqzR007-Ba6-5" value="uc sistem penjualan sepatu online" style="shape=umlFrame;whiteSpace=wrap;html=1;width=160;height=30;" vertex="1" parent="1">
          <mxGeometry x="33" width="910" height="644.48" as="geometry" />
        </mxCell>
        <mxCell id="2nqrqoSfyTqzR007-Ba6-9" value="" style="rounded=0;whiteSpace=wrap;html=1;" vertex="1" parent="1">
          <mxGeometry x="210" y="34" width="590" height="590" as="geometry" />
        </mxCell>
        <mxCell id="2nqrqoSfyTqzR007-Ba6-13" value="user" style="shape=umlActor;verticalLabelPosition=bottom;verticalAlign=top;html=1;" vertex="1" parent="1">
          <mxGeometry x="120" y="130" width="30" height="65" as="geometry" />
        </mxCell>
        <mxCell id="2nqrqoSfyTqzR007-Ba6-22" value="&lt;b&gt;sistem penjualan sepatu online&lt;/b&gt;" style="text;html=1;strokeColor=none;fillColor=none;align=center;verticalAlign=middle;whiteSpace=wrap;rounded=0;" vertex="1" parent="1">
          <mxGeometry x="220" y="40" width="148.52" height="30" as="geometry" />
        </mxCell>
        <mxCell id="2nqrqoSfyTqzR007-Ba6-23" value="Admin" style="shape=umlActor;verticalLabelPosition=bottom;verticalAlign=top;html=1;" vertex="1" parent="1">
          <mxGeometry x="90" y="490" width="30" height="60" as="geometry" />
        </mxCell>
        <mxCell id="2nqrqoSfyTqzR007-Ba6-29" value="melihat produk" style="ellipse;whiteSpace=wrap;html=1;" vertex="1" parent="1">
          <mxGeometry x="290" y="360" width="124.74" height="50" as="geometry" />
        </mxCell>
        <mxCell id="2nqrqoSfyTqzR007-Ba6-32" value="tambah ke keranjang" style="ellipse;whiteSpace=wrap;html=1;" vertex="1" parent="1">
          <mxGeometry x="580" y="290" width="124.74" height="50" as="geometry" />
        </mxCell>
        <mxCell id="2nqrqoSfyTqzR007-Ba6-33" value="checkout" style="ellipse;whiteSpace=wrap;html=1;" vertex="1" parent="1">
          <mxGeometry x="580" y="410" width="124.74" height="50" as="geometry" />
        </mxCell>
        <mxCell id="2nqrqoSfyTqzR007-Ba6-35" value="tambah ke menu favorit" style="ellipse;whiteSpace=wrap;html=1;" vertex="1" parent="1">
          <mxGeometry x="290" y="210" width="124.74" height="50" as="geometry" />
        </mxCell>
        <mxCell id="2nqrqoSfyTqzR007-Ba6-39" value="login" style="ellipse;whiteSpace=wrap;html=1;" vertex="1" parent="1">
          <mxGeometry x="580" y="149.74" width="124.74" height="50" as="geometry" />
        </mxCell>
        <mxCell id="2nqrqoSfyTqzR007-Ba6-48" value="daftar" style="ellipse;whiteSpace=wrap;html=1;" vertex="1" parent="1">
          <mxGeometry x="290" y="130" width="124.74" height="50" as="geometry" />
        </mxCell>
        <mxCell id="2nqrqoSfyTqzR007-Ba6-54" value="include" style="endArrow=open;endSize=12;dashed=1;html=1;rounded=0;" edge="1" parent="1" source="2nqrqoSfyTqzR007-Ba6-32" target="2nqrqoSfyTqzR007-Ba6-39">
          <mxGeometry width="160" relative="1" as="geometry">
            <mxPoint x="540" y="272.24" as="sourcePoint" />
            <mxPoint x="700" y="272.24" as="targetPoint" />
          </mxGeometry>
        </mxCell>
        <mxCell id="2nqrqoSfyTqzR007-Ba6-57" value="include" style="endArrow=open;endSize=12;dashed=1;html=1;rounded=0;" edge="1" parent="1" source="2nqrqoSfyTqzR007-Ba6-35" target="2nqrqoSfyTqzR007-Ba6-39">
          <mxGeometry width="160" relative="1" as="geometry">
            <mxPoint x="622.3700000000001" y="260.24" as="sourcePoint" />
            <mxPoint x="622.3700000000001" y="202.24" as="targetPoint" />
          </mxGeometry>
        </mxCell>
        <mxCell id="2nqrqoSfyTqzR007-Ba6-60" value="menambah/edit produk" style="ellipse;whiteSpace=wrap;html=1;" vertex="1" parent="1">
          <mxGeometry x="430" y="495" width="124.74" height="50" as="geometry" />
        </mxCell>
        <mxCell id="2nqrqoSfyTqzR007-Ba6-65" value="mengatur orderan" style="ellipse;whiteSpace=wrap;html=1;" vertex="1" parent="1">
          <mxGeometry x="280" y="430" width="124.74" height="50" as="geometry" />
        </mxCell>
        <mxCell id="2nqrqoSfyTqzR007-Ba6-66" value="melihat statistik total sales" style="ellipse;whiteSpace=wrap;html=1;" vertex="1" parent="1">
          <mxGeometry x="280" y="560" width="124.74" height="50" as="geometry" />
        </mxCell>
        <mxCell id="2nqrqoSfyTqzR007-Ba6-70" value="" style="endArrow=none;html=1;rounded=0;exitX=0.5;exitY=0.5;exitDx=0;exitDy=0;exitPerimeter=0;entryX=0;entryY=0.5;entryDx=0;entryDy=0;" edge="1" parent="1" source="2nqrqoSfyTqzR007-Ba6-23" target="2nqrqoSfyTqzR007-Ba6-65">
          <mxGeometry width="50" height="50" relative="1" as="geometry">
            <mxPoint x="340" y="510" as="sourcePoint" />
            <mxPoint x="390" y="460" as="targetPoint" />
          </mxGeometry>
        </mxCell>
        <mxCell id="2nqrqoSfyTqzR007-Ba6-71" value="include" style="endArrow=open;endSize=12;dashed=1;html=1;rounded=0;exitX=0.5;exitY=0;exitDx=0;exitDy=0;" edge="1" parent="1" source="2nqrqoSfyTqzR007-Ba6-33" target="2nqrqoSfyTqzR007-Ba6-32">
          <mxGeometry width="160" relative="1" as="geometry">
            <mxPoint x="652.3700000000001" y="260.24" as="sourcePoint" />
            <mxPoint x="652.3700000000001" y="209.74" as="targetPoint" />
          </mxGeometry>
        </mxCell>
        <mxCell id="2nqrqoSfyTqzR007-Ba6-74" value="" style="endArrow=none;html=1;rounded=0;exitX=0.5;exitY=0.5;exitDx=0;exitDy=0;exitPerimeter=0;entryX=0;entryY=0.5;entryDx=0;entryDy=0;" edge="1" parent="1" source="2nqrqoSfyTqzR007-Ba6-23" target="2nqrqoSfyTqzR007-Ba6-66">
          <mxGeometry width="50" height="50" relative="1" as="geometry">
            <mxPoint x="570" y="470" as="sourcePoint" />
            <mxPoint x="620" y="420" as="targetPoint" />
          </mxGeometry>
        </mxCell>
        <mxCell id="2nqrqoSfyTqzR007-Ba6-77" value="include" style="endArrow=open;endSize=12;dashed=1;html=1;rounded=0;entryX=1.015;entryY=0.636;entryDx=0;entryDy=0;exitX=0.05;exitY=0.318;exitDx=0;exitDy=0;exitPerimeter=0;entryPerimeter=0;" edge="1" parent="1" source="2nqrqoSfyTqzR007-Ba6-39" target="2nqrqoSfyTqzR007-Ba6-48">
          <mxGeometry width="160" relative="1" as="geometry">
            <mxPoint x="652.3700000000003" y="102.24000000000007" as="sourcePoint" />
            <mxPoint x="652.3700000000003" y="159.74" as="targetPoint" />
          </mxGeometry>
        </mxCell>
        <mxCell id="2nqrqoSfyTqzR007-Ba6-78" value="" style="endArrow=none;html=1;rounded=0;exitX=0.572;exitY=0.599;exitDx=0;exitDy=0;exitPerimeter=0;entryX=0;entryY=0.5;entryDx=0;entryDy=0;" edge="1" parent="1" source="2nqrqoSfyTqzR007-Ba6-23" target="2nqrqoSfyTqzR007-Ba6-60">
          <mxGeometry width="50" height="50" relative="1" as="geometry">
            <mxPoint x="350" y="490" as="sourcePoint" />
            <mxPoint x="400" y="440" as="targetPoint" />
          </mxGeometry>
        </mxCell>
        <mxCell id="2nqrqoSfyTqzR007-Ba6-82" value="" style="endArrow=none;html=1;rounded=0;exitX=0.5;exitY=0.5;exitDx=0;exitDy=0;exitPerimeter=0;entryX=-0.004;entryY=0.64;entryDx=0;entryDy=0;entryPerimeter=0;" edge="1" parent="1" source="2nqrqoSfyTqzR007-Ba6-13" target="2nqrqoSfyTqzR007-Ba6-48">
          <mxGeometry width="50" height="50" relative="1" as="geometry">
            <mxPoint x="220" y="300" as="sourcePoint" />
            <mxPoint x="270" y="250" as="targetPoint" />
          </mxGeometry>
        </mxCell>
        <mxCell id="2nqrqoSfyTqzR007-Ba6-83" value="" style="endArrow=none;html=1;rounded=0;exitX=0.5;exitY=0.5;exitDx=0;exitDy=0;exitPerimeter=0;entryX=0;entryY=0.5;entryDx=0;entryDy=0;" edge="1" parent="1" source="2nqrqoSfyTqzR007-Ba6-13" target="2nqrqoSfyTqzR007-Ba6-35">
          <mxGeometry width="50" height="50" relative="1" as="geometry">
            <mxPoint x="220" y="300" as="sourcePoint" />
            <mxPoint x="270" y="250" as="targetPoint" />
          </mxGeometry>
        </mxCell>
        <mxCell id="2nqrqoSfyTqzR007-Ba6-84" value="" style="endArrow=none;html=1;rounded=0;exitX=0.5;exitY=0.5;exitDx=0;exitDy=0;exitPerimeter=0;entryX=0;entryY=0.5;entryDx=0;entryDy=0;" edge="1" parent="1" source="2nqrqoSfyTqzR007-Ba6-13" target="2nqrqoSfyTqzR007-Ba6-29">
          <mxGeometry width="50" height="50" relative="1" as="geometry">
            <mxPoint x="370" y="350" as="sourcePoint" />
            <mxPoint x="420" y="300" as="targetPoint" />
          </mxGeometry>
        </mxCell>
        <mxCell id="2nqrqoSfyTqzR007-Ba6-85" value="" style="endArrow=none;html=1;rounded=0;exitX=0.551;exitY=0.638;exitDx=0;exitDy=0;exitPerimeter=0;entryX=0;entryY=0.5;entryDx=0;entryDy=0;" edge="1" parent="1" source="2nqrqoSfyTqzR007-Ba6-13" target="2nqrqoSfyTqzR007-Ba6-32">
          <mxGeometry width="50" height="50" relative="1" as="geometry">
            <mxPoint x="400" y="380" as="sourcePoint" />
            <mxPoint x="450" y="330" as="targetPoint" />
            <Array as="points">
              <mxPoint x="350" y="315" />
            </Array>
          </mxGeometry>
        </mxCell>
        <mxCell id="2nqrqoSfyTqzR007-Ba6-86" value="" style="endArrow=none;html=1;rounded=0;exitX=0.5;exitY=0.5;exitDx=0;exitDy=0;exitPerimeter=0;entryX=0;entryY=0.5;entryDx=0;entryDy=0;" edge="1" parent="1" source="2nqrqoSfyTqzR007-Ba6-13" target="2nqrqoSfyTqzR007-Ba6-33">
          <mxGeometry width="50" height="50" relative="1" as="geometry">
            <mxPoint x="400" y="380" as="sourcePoint" />
            <mxPoint x="450" y="330" as="targetPoint" />
            <Array as="points">
              <mxPoint x="340" y="340" />
              <mxPoint x="480" y="360" />
            </Array>
          </mxGeometry>
        </mxCell>
        <mxCell id="2nqrqoSfyTqzR007-Ba6-87" value="include" style="endArrow=open;endSize=12;dashed=1;html=1;rounded=0;exitX=1;exitY=0.5;exitDx=0;exitDy=0;entryX=1;entryY=0.5;entryDx=0;entryDy=0;" edge="1" parent="1" source="2nqrqoSfyTqzR007-Ba6-60" target="2nqrqoSfyTqzR007-Ba6-39">
          <mxGeometry width="160" relative="1" as="geometry">
            <mxPoint x="652.3700000000001" y="420" as="sourcePoint" />
            <mxPoint x="652.3700000000001" y="350.0000000000001" as="targetPoint" />
            <Array as="points">
              <mxPoint x="770" y="520" />
              <mxPoint x="770" y="175" />
            </Array>
          </mxGeometry>
        </mxCell>
        <mxCell id="2nqrqoSfyTqzR007-Ba6-88" value="" style="endArrow=none;dashed=1;html=1;dashPattern=1 3;strokeWidth=2;rounded=0;exitX=1;exitY=0.5;exitDx=0;exitDy=0;" edge="1" parent="1" source="2nqrqoSfyTqzR007-Ba6-65">
          <mxGeometry width="50" height="50" relative="1" as="geometry">
            <mxPoint x="400" y="490" as="sourcePoint" />
            <mxPoint x="640" y="520" as="targetPoint" />
          </mxGeometry>
        </mxCell>
        <mxCell id="2nqrqoSfyTqzR007-Ba6-89" value="" style="endArrow=none;dashed=1;html=1;dashPattern=1 3;strokeWidth=2;rounded=0;exitX=1;exitY=0.5;exitDx=0;exitDy=0;" edge="1" parent="1" source="2nqrqoSfyTqzR007-Ba6-66">
          <mxGeometry width="50" height="50" relative="1" as="geometry">
            <mxPoint x="400" y="490" as="sourcePoint" />
            <mxPoint x="630" y="520" as="targetPoint" />
          </mxGeometry>
        </mxCell>
      </root>
    </mxGraphModel>
  </diagram>
</mxfile>
